<?xml version="1.0" encoding="utf-8"?>
<!-- Generator: Adobe Illustrator 25.2.3, SVG Export Plug-In . SVG Version: 6.00 Build 0)  -->
<svg version="1.1" id="Layer_1" xmlns="http://www.w3.org/2000/svg" xmlns:xlink="http://www.w3.org/1999/xlink" x="0px" y="0px"
	 viewBox="0 0 925.28 603.89" style="enable-background:new 0 0 925.28 603.89;" xml:space="preserve">
<style type="text/css">
	.st0{fill:#010202;}
	.st1{fill:#FFFFFF;}
	.st2{fill:#E5281D;}
</style>
<g>
	<g>
		<path d="M181.85,237.69h34.21v118.91h49.84v26.37h-84.05V237.69z"/>
	</g>
	<g>
		<g>
			<path d="M531.54,293.98h19.86v88.71h-19.86V293.98z"/>
		</g>
		<g>
			<path d="M621.54,318.69h7.06c0.05-8.39,0.22-13.35,0.51-14.88c0.53-3.53,2.37-6.32,5.49-8.38c3.13-2.06,7.55-3.09,13.28-3.09
				c4.12,0,8.78,0.76,13.97,2.29v12.24c-2.86-0.67-5.21-1-7.06-1c-2.33,0-4.03,0.39-5.09,1.18c-0.78,0.59-1.16,1.8-1.16,3.65
				l-0.07,8h12.59v13.59h-12.59v50.41H628.6v-50.41h-7.06V318.69z"/>
			<path d="M671.36,318.69h20.3l20.56,40.16l22.69-40.16h20.36l-49.58,87.42h-20.52l16.28-28.19L671.36,318.69z"/>
		</g>
		<g>
			<path d="M577.9,318.51h19.94v64.42H577.9V318.51z"/>
		</g>
		<g>
			<path class="st0" d="M588.29,305.54c5.26-3.79,11.77-9.29,18.03-16.98c4.44-5.45,7.72-10.73,10.14-15.29
				c2.26-3.75,6.37-11.74,6.76-22.65c0.31-8.6-1.83-15.39-3.38-19.25c-6.18-12.49-18.99-20.25-32.68-19.81
				c-12.91,0.41-24.63,8.06-30.43,19.81c-1.25,3.58-2.57,8.61-2.82,14.72c-0.36,8.97,1.75,16.13,3.38,20.38
				c2.18,5.82,6.06,14.13,12.96,22.65C576.63,296.99,583.33,302.24,588.29,305.54z"/>
			<path class="st1" d="M578.71,228.55c-1.18-0.65-4.63,3.34-6.76,6.23c-1.44,1.94-3.36,4.54-4.51,8.49
				c-2.15,7.42,0.17,13.7,0.56,14.72c2.6,6.73,7.63,10.15,9.58,11.32c7.18,4.31,14.29,3.19,16.34,2.83
				c1.69-0.29,5.61-1.16,9.58-3.96c2.02-1.42,4.35-3.07,5.64-6.23c0.41-1,1.52-3.69,0.56-6.79c-0.87-2.82-2.94-4.37-3.94-5.1
				c-2.02-1.46-4.16-1.92-8.45-2.83c-3.49-0.74-3.67-0.47-5.64-1.13c-1.35-0.46-3.79-1.31-6.2-3.4c-2.45-2.12-3.61-4.42-4.51-6.23
				c-0.72-1.45-1.35-2.7-1.69-4.53C578.87,229.78,579.23,228.84,578.71,228.55z"/>
			<path class="st2" d="M580.4,263.65c0.5,0.75,1.39,1.87,2.82,2.83c2.06,1.38,4.09,1.64,5.07,1.7c1.01-0.01,3.33-0.16,5.64-1.7
				c1.42-0.95,2.31-2.07,2.82-2.83c-0.34-0.62-0.87-1.44-1.69-2.26c-0.49-0.5-1.24-1.14-2.25-1.7c-0.37-0.13-1.51-0.47-2.82,0
				c-0.86,0.31-1.42,0.83-1.69,1.13c-0.18-0.23-0.73-0.87-1.69-1.13c-0.76-0.21-1.4-0.08-1.69,0c-0.66,0.23-1.76,0.71-2.82,1.7
				C581.21,262.21,580.69,263.07,580.4,263.65z"/>
			<path d="M574.77,247.8c-0.91-0.53-1.97-0.14-2.25,0.57c-0.22,0.53,0,1.25,0.56,1.7c0.33,0.34,2.4,2.37,5.64,2.26
				c3.38-0.11,5.35-2.48,5.64-2.83c0.12-0.15,0.46-1.16,0-1.7c-0.39-0.45-1.31-0.48-2.25,0c-0.19,0.29-0.54,0.76-1.13,1.13
				c-0.95,0.6-1.9,0.59-2.25,0.57c-0.53-0.03-1.35-0.15-2.25-0.57C575.68,248.58,575.13,248.13,574.77,247.8z"/>
		</g>
	</g>
	<g>
		<g>
			<g>
				<path d="M422.38,331.24c-2.29,1.18-3.56,3.61-3.18,5.94c0.44,2.75,2.95,4,3.18,4.11c0.34,0.19,2.74,1.5,5.46,0.46
					c1.93-0.74,2.89-2.24,3.18-2.74c0.34,0.96,0.98,3.18,0.45,5.94c-0.55,2.87-2.05,4.73-2.73,5.48c-2.74,3.04-6.12,3.87-7.28,4.11
					c-4.75,1-8.5-0.82-9.55-1.37c-1.31-0.69-4.27-2.32-5.91-5.94c-0.47-1.04-1.92-4.63-0.45-8.68c1.26-3.49,3.91-5.24,5-5.94
					c1.77-1.13,3.46-1.61,4.55-1.83c1.28-0.13,2.82-0.18,4.55,0C420.65,330.89,421.56,331.05,422.38,331.24z"/>
				<path d="M372.35,334.45c0.09,2.97,1.64,5.63,4.09,6.85c3.22,1.61,6.43-0.03,7.28-0.46c3-1.53,4.22-4.23,4.55-5.03
					c0.76-1.75,1.92-3.99,3.64-6.4c2.62-3.65,5.26-5.86,5.91-6.4c3.59-2.94,7.24-4.56,10.01-5.48c3.04-0.76,10.71-2.25,19.56,0.91
					c7.07,2.52,11.54,6.81,13.64,9.14c0.91,1.14,7.32,9.47,5,20.56c-1.91,9.13-8.47,14-10.01,15.08c-2.23,1.75-6.74,4.79-13.19,5.94
					c-6.39,1.14-11.37-0.17-14.1-0.91c-9.95-2.72-16.26-9.05-19.1-12.34c-0.63-0.85-1.79-2.18-3.64-3.2c-2.37-1.31-4.52-1.37-5-1.37
					c-1.17-0.01-2.63-0.03-4.09,0.91c-1.37,0.88-2.01,2.13-2.27,2.74c-0.02,1.13,0.05,2.72,0.45,4.57c0.53,2.44,1.39,4.17,1.82,5.03
					c3.25,6.44,10.46,13.25,10.46,13.25c3.55,3.35,7.8,7.31,14.55,10.97c5.48,2.96,10.47,4.57,14.1,5.48
					c3.65,1.03,8.78,2.21,15.01,2.74c13.06,1.11,23.08-1.27,26.83-2.28c3.76-1.01,9.8-2.69,16.83-6.85
					c5.98-3.54,10.31-7.49,13.19-10.51c2.63-2.75,6.13-6.97,9.1-12.79c3-5.88,4.15-10.82,5-14.62c1.02-4.53,2.02-10.93,1.82-18.73
					c-0.21-9.38-1.7-17.16-3.18-22.85c-3.58-13.75-9.18-23.04-10.46-25.13c-3.84-6.24-7.79-10.82-9.55-12.79
					c-2.1-2.34-3.97-4.15-7.73-7.77c-4.38-4.22-5.99-5.47-7.28-6.4c-1.12-0.8-3.02-1.91-6.82-4.11c-1.26-0.73-2.41-1.38-4.09-1.83
					c-1.48-0.39-2.76-0.46-3.64-0.46c3.66,6.65,6.62,11.94,8.64,15.54c1.01,1.8,3.43,6.1,6.37,11.88c2.29,4.51,3.24,6.67,4.09,9.14
					c1.27,3.69,1.92,6.88,2.27,9.14c-5.81-14.32-12.92-24.54-18.19-31.07c-9.13-11.3-15.44-14.81-17.74-15.99
					c-7.67-3.95-14.94-4.85-19.56-5.03c5.6,5.41,9.95,10.48,13.19,14.62c4.14,5.28,7.04,9.76,8.64,12.34
					c3.66,5.89,5.54,9.93,7.73,14.62c1.2,2.57,2.14,4.76,2.73,7.77c0.63,3.17,0.6,5.89,0.45,7.77c-1.92-3.42-4.82-8.37-8.64-14.16
					c-6.34-9.61-11.3-17.03-19.56-24.67c-5.9-5.46-11.13-10.19-19.56-12.34c-4.95-1.26-9.3-1.2-12.28-0.91
					c5.75,6.38,10.62,12.12,14.55,16.91c8.38,10.18,10.42,13.47,11.37,15.08c4.2,7.09,6.7,14.17,8.19,20.56
					c-3.63-0.73-9.83-1.51-17.28,0c-7.16,1.45-12.42,4.38-15.46,6.4c-4.93,3-8.32,6.28-10.46,8.68c-2.01,2.25-4.2,4.74-5.91,8.68
					C372.95,328.68,372.48,332.15,372.35,334.45z"/>
			</g>
			<g>
				<path class="st1" d="M453.26,314.54h11.28v29.02l16.61-14.99h14.17l-19.37,17.42l21.69,18.93h-14.01l-19.09-16.75v16.75h-11.28
					V314.54z"/>
			</g>
		</g>
		<g>
			<ellipse class="st0" cx="320.12" cy="346" rx="46.12" ry="44"/>
			<ellipse class="st1" cx="320.18" cy="346.61" rx="29.18" ry="26.65"/>
		</g>
	</g>
</g>
<g>
</g>
<g>
</g>
<g>
</g>
<g>
</g>
<g>
</g>
<g>
</g>
</svg>
