<?xml version="1.0" encoding="utf-8"?>
<!-- Generator: Adobe Illustrator 25.2.3, SVG Export Plug-In . SVG Version: 6.00 Build 0)  -->
<svg version="1.1" id="Layer_1" xmlns="http://www.w3.org/2000/svg" xmlns:xlink="http://www.w3.org/1999/xlink" x="0px" y="0px"
	 viewBox="0 0 925.28 603.89" style="enable-background:new 0 0 925.28 603.89;" xml:space="preserve">
<style type="text/css">
	.st0{fill:#010202;}
	.st1{fill:#FFFFFF;}
	.st2{fill:#E5281D;}
</style>
<g>
	<path d="M977.85,665.69h34.21v118.91h49.84v26.37h-84.05V665.69z"/>
</g>
<g>
	<path d="M1327.54,721.98h19.86v88.71h-19.86V721.98z"/>
</g>
<g>
	<path d="M1417.54,746.69h7.06c0.05-8.39,0.22-13.35,0.51-14.88c0.53-3.53,2.37-6.32,5.49-8.38c3.13-2.06,7.55-3.09,13.28-3.09
		c4.12,0,8.78,0.76,13.97,2.29v12.24c-2.86-0.67-5.21-1-7.06-1c-2.33,0-4.03,0.39-5.09,1.18c-0.78,0.59-1.16,1.8-1.16,3.65l-0.07,8
		h12.59v13.59h-12.59v50.41h-19.86v-50.41h-7.06V746.69z"/>
	<path d="M1467.36,746.69h20.3l20.56,40.16l22.69-40.16h20.36l-49.58,87.42h-20.52l16.28-28.19L1467.36,746.69z"/>
</g>
<g>
	<path d="M1373.9,746.51h19.94v64.42h-19.94V746.51z"/>
</g>
<g>
	<path class="st0" d="M442.23,465c18.56-13.36,41.5-32.76,63.59-59.89c15.65-19.22,27.23-37.84,35.77-53.9
		c7.96-13.22,22.46-41.4,23.85-79.85c1.09-30.34-6.45-54.25-11.92-67.87c-21.78-44.04-66.97-71.42-115.25-69.87
		c-45.52,1.46-86.85,28.41-107.3,69.87c-4.42,12.64-9.06,30.37-9.94,51.9c-1.28,31.63,6.16,56.86,11.92,71.87
		c7.7,20.52,21.37,49.83,45.7,79.85C401.13,434.85,424.75,453.35,442.23,465z"/>
	<path class="st1" d="M408.45,193.5c-4.17-2.29-16.32,11.79-23.85,21.96c-5.06,6.84-11.86,16.02-15.9,29.94
		c-7.59,26.17,0.6,48.32,1.99,51.9c9.17,23.74,26.89,35.79,33.78,39.93c25.31,15.2,50.38,11.24,57.63,9.98
		c5.97-1.04,19.78-4.1,33.78-13.97c7.12-5.02,15.34-10.82,19.87-21.96c1.43-3.52,5.36-13.01,1.99-23.96
		c-3.06-9.94-10.38-15.41-13.91-17.97c-7.11-5.15-14.67-6.76-29.81-9.98c-12.31-2.62-12.93-1.65-19.87-3.99
		c-4.77-1.61-13.37-4.61-21.86-11.98c-8.63-7.49-12.71-15.58-15.9-21.96c-2.56-5.12-4.75-9.51-5.96-15.97
		C409.01,197.84,410.29,194.51,408.45,193.5z"/>
	<path class="st2" d="M414.41,317.27c1.76,2.64,4.9,6.61,9.94,9.98c7.25,4.85,14.42,5.78,17.88,5.99
		c3.55-0.02,11.73-0.57,19.87-5.99c5.01-3.34,8.15-7.29,9.94-9.98c-1.19-2.17-3.07-5.08-5.96-7.99c-1.74-1.75-4.36-4.01-7.95-5.99
		c-1.3-0.45-5.32-1.65-9.94,0c-3.04,1.09-5,2.93-5.96,3.99c-0.64-0.81-2.57-3.06-5.96-3.99c-2.68-0.74-4.93-0.28-5.96,0
		c-2.33,0.81-6.19,2.5-9.94,5.99C417.27,312.18,415.45,315.21,414.41,317.27z"/>
	<path d="M394.54,261.38c-3.2-1.88-6.93-0.5-7.95,2c-0.76,1.87-0.01,4.4,1.99,5.99c1.17,1.2,8.46,8.37,19.87,7.99
		c11.93-0.4,18.87-8.74,19.87-9.98c0.42-0.52,1.64-4.1,0-5.99c-1.39-1.6-4.62-1.68-7.95,0c-0.66,1.03-1.9,2.67-3.97,3.99
		c-3.33,2.13-6.69,2.08-7.95,2c-1.86-0.12-4.75-0.53-7.95-2C397.78,264.12,395.81,262.56,394.54,261.38z"/>
</g>
<g>
	<g>
		<g>
			<path d="M1218.38,759.24c-2.29,1.18-3.56,3.61-3.18,5.94c0.44,2.75,2.95,4,3.18,4.11c0.34,0.19,2.74,1.5,5.46,0.46
				c1.93-0.74,2.89-2.24,3.18-2.74c0.34,0.96,0.98,3.18,0.45,5.94c-0.55,2.87-2.05,4.73-2.73,5.48c-2.74,3.04-6.12,3.87-7.28,4.11
				c-4.75,1-8.5-0.82-9.55-1.37c-1.31-0.69-4.27-2.32-5.91-5.94c-0.47-1.04-1.92-4.63-0.45-8.68c1.26-3.49,3.91-5.24,5-5.94
				c1.77-1.13,3.46-1.61,4.55-1.83c1.28-0.13,2.82-0.18,4.55,0C1216.65,758.89,1217.56,759.05,1218.38,759.24z"/>
			<path d="M1168.35,762.45c0.09,2.97,1.64,5.63,4.09,6.85c3.22,1.61,6.43-0.03,7.28-0.46c3-1.53,4.22-4.23,4.55-5.03
				c0.76-1.75,1.92-3.99,3.64-6.4c2.62-3.65,5.26-5.86,5.91-6.4c3.59-2.94,7.24-4.56,10.01-5.48c3.04-0.76,10.71-2.25,19.56,0.91
				c7.07,2.52,11.54,6.81,13.64,9.14c0.91,1.14,7.32,9.47,5,20.56c-1.91,9.13-8.47,14-10.01,15.08c-2.23,1.75-6.74,4.79-13.19,5.94
				c-6.39,1.14-11.37-0.17-14.1-0.91c-9.95-2.72-16.26-9.05-19.1-12.34c-0.63-0.85-1.79-2.18-3.64-3.2c-2.37-1.31-4.52-1.37-5-1.37
				c-1.17-0.01-2.63-0.03-4.09,0.91c-1.37,0.88-2.01,2.13-2.27,2.74c-0.02,1.13,0.05,2.72,0.45,4.57c0.53,2.44,1.39,4.17,1.82,5.03
				c3.25,6.44,10.46,13.25,10.46,13.25c3.55,3.35,7.8,7.31,14.55,10.97c5.48,2.96,10.47,4.57,14.1,5.48
				c3.65,1.03,8.78,2.21,15.01,2.74c13.06,1.11,23.08-1.27,26.83-2.28c3.76-1.01,9.8-2.69,16.83-6.85
				c5.98-3.54,10.31-7.49,13.19-10.51c2.63-2.75,6.13-6.97,9.1-12.79c3-5.88,4.15-10.82,5-14.62c1.02-4.53,2.02-10.93,1.82-18.73
				c-0.21-9.38-1.7-17.16-3.18-22.85c-3.58-13.75-9.18-23.04-10.46-25.13c-3.84-6.24-7.79-10.82-9.55-12.79
				c-2.1-2.34-3.97-4.15-7.73-7.77c-4.38-4.22-5.99-5.47-7.28-6.4c-1.12-0.8-3.02-1.91-6.82-4.11c-1.26-0.73-2.41-1.38-4.09-1.83
				c-1.48-0.39-2.76-0.46-3.64-0.46c3.66,6.65,6.62,11.94,8.64,15.54c1.01,1.8,3.43,6.1,6.37,11.88c2.29,4.51,3.24,6.67,4.09,9.14
				c1.27,3.69,1.92,6.88,2.27,9.14c-5.81-14.32-12.92-24.54-18.19-31.07c-9.13-11.3-15.44-14.81-17.74-15.99
				c-7.67-3.95-14.94-4.85-19.56-5.03c5.6,5.41,9.95,10.48,13.19,14.62c4.14,5.28,7.04,9.76,8.64,12.34
				c3.66,5.89,5.54,9.93,7.73,14.62c1.2,2.57,2.14,4.76,2.73,7.77c0.63,3.17,0.6,5.89,0.45,7.77c-1.92-3.42-4.82-8.37-8.64-14.16
				c-6.34-9.61-11.3-17.03-19.56-24.67c-5.9-5.46-11.13-10.19-19.56-12.34c-4.95-1.26-9.3-1.2-12.28-0.91
				c5.75,6.38,10.62,12.12,14.55,16.91c8.38,10.18,10.42,13.47,11.37,15.08c4.2,7.09,6.7,14.17,8.19,20.56
				c-3.63-0.73-9.83-1.51-17.28,0c-7.16,1.45-12.42,4.38-15.46,6.4c-4.93,3-8.32,6.28-10.46,8.68c-2.01,2.25-4.2,4.74-5.91,8.68
				C1168.95,756.68,1168.48,760.15,1168.35,762.45z"/>
		</g>
		<g>
			<path class="st1" d="M1249.26,742.54h11.28v29.02l16.61-14.99h14.17l-19.37,17.42l21.69,18.93h-14.01l-19.09-16.75v16.75h-11.28
				V742.54z"/>
		</g>
	</g>
	<g>
		<ellipse class="st0" cx="1116.12" cy="774" rx="46.12" ry="44"/>
		<ellipse class="st1" cx="1116.18" cy="774.61" rx="29.18" ry="26.65"/>
	</g>
</g>
<g>
</g>
<g>
</g>
<g>
</g>
<g>
</g>
<g>
</g>
<g>
</g>
</svg>
